<?xml version="1.0" standalone="no"?>
<!DOCTYPE svg PUBLIC "-//W3C//DTD SVG 20010904//EN"
 "http://www.w3.org/TR/2001/REC-SVG-20010904/DTD/svg10.dtd">
<svg version="1.0" xmlns="http://www.w3.org/2000/svg"
 width="320.000000pt" height="320.000000pt" viewBox="0 0 320.000000 320.000000"
 preserveAspectRatio="xMidYMid meet">
<metadata>
Created by potrace 1.14, written by Peter Selinger 2001-2017
</metadata>
<g transform="translate(0.000000,320.000000) scale(0.100000,-0.100000)"
fill="#000000" stroke="none">
<path d="M1712 3151 c-49 -13 -49 -19 1 -14 95 11 211 -55 281 -161 50 -75 84
-171 101 -282 25 -166 46 -216 175 -419 37 -58 77 -136 94 -185 26 -75 29 -98
29 -195 0 -96 -6 -141 -29 -230 -4 -17 -3 -17 5 -4 26 41 62 217 63 304 0 119
-20 175 -115 312 -41 59 -84 127 -96 150 -31 62 -51 157 -51 248 -1 265 -156
470 -364 481 -33 2 -76 -1 -94 -5z"/>
<path d="M1413 3110 c-54 -11 -90 -31 -132 -72 -76 -75 -111 -153 -176 -399
-55 -207 -83 -277 -159 -397 -65 -103 -93 -168 -100 -241 -4 -28 -8 -74 -11
-102 -4 -29 -2 -48 3 -45 5 3 12 29 15 58 8 80 43 162 114 266 91 134 106 168
163 364 67 226 123 343 204 423 72 72 129 102 223 117 55 10 63 13 41 19 -49
13 -143 18 -185 9z"/>
<path d="M1620 2945 c0 -29 -52 -118 -97 -166 -25 -26 -86 -76 -136 -111 -161
-109 -233 -192 -251 -288 l-7 -35 22 40 c35 66 108 133 226 206 129 80 192
145 223 226 22 58 37 143 26 143 -3 0 -6 -7 -6 -15z"/>
<path d="M1814 2833 c-47 -146 -120 -227 -262 -294 -223 -104 -252 -121 -278
-155 -53 -69 -38 -180 28 -215 l23 -12 -22 24 c-48 53 -50 132 -4 174 19 17
20 16 27 -11 10 -44 32 -81 71 -125 34 -38 35 -40 18 -59 -30 -33 -83 -51
-200 -65 -115 -15 -174 -35 -207 -72 -28 -31 -56 -104 -68 -178 -22 -134 -52
-247 -99 -373 -77 -205 -86 -247 -86 -409 0 -178 3 -182 121 -190 44 -3 98 0
122 5 23 5 42 8 42 6 0 -2 -15 -24 -34 -49 -157 -205 -85 -532 143 -654 83
-44 142 -60 241 -66 71 -4 78 -3 40 5 -113 24 -252 125 -321 231 -70 109 -101
251 -80 364 13 71 68 185 96 200 92 48 263 175 385 285 48 43 30 33 -160 -93
-170 -113 -232 -146 -310 -165 -70 -16 -193 -24 -210 -13 -20 14 -27 219 -10
304 6 34 40 150 75 257 36 107 74 239 85 292 37 185 82 233 260 278 101 26
151 50 177 86 l20 27 36 -27 c35 -27 125 -66 150 -66 6 0 -14 15 -46 32 -94
51 -194 170 -222 265 -5 18 1 25 35 43 34 18 46 19 80 10 21 -6 54 -23 72 -38
l33 -27 -16 25 c-9 14 -31 35 -49 47 l-32 22 28 12 c155 62 235 119 275 193
28 54 39 58 39 16 0 -36 30 -99 72 -151 l28 -35 -14 -71 c-28 -131 -53 -182
-127 -256 -65 -65 -66 -66 -26 -45 23 13 63 44 89 69 54 54 88 145 88 235 0
30 4 54 8 54 10 0 71 -64 106 -112 16 -21 36 -64 46 -95 l19 -58 0 42 c1 76
-33 144 -120 240 -44 48 -93 106 -109 129 -37 53 -63 134 -58 184 4 43 1 51
-8 23z"/>
<path d="M1734 2446 c-17 -8 -34 -21 -37 -30 -6 -14 -4 -14 19 1 14 9 47 22
72 29 46 12 46 13 12 13 -19 0 -49 -6 -66 -13z"/>
<path d="M1825 2395 c-16 -8 -45 -14 -64 -15 -29 0 -32 -2 -21 -15 24 -29 89
-14 110 25 6 11 9 20 8 19 -2 0 -16 -7 -33 -14z"/>
<path d="M1419 2359 c25 -21 95 -26 106 -8 10 15 7 16 -65 22 l-65 5 24 -19z"/>
<path d="M1630 2241 c-33 -6 -34 -7 -11 -15 16 -6 28 -3 39 8 9 9 14 15 12 15
-3 -1 -21 -5 -40 -8z"/>
<path d="M1603 2178 c6 -4 23 -8 37 -8 14 0 31 4 37 8 8 5 -9 8 -37 8 -28 0
-45 -3 -37 -8z"/>
<path d="M1617 2148 c2 -5 15 -8 28 -8 13 0 26 3 28 8 3 4 -10 7 -28 7 -18 0
-31 -3 -28 -7z"/>
<path d="M1896 2131 c24 -22 55 -34 126 -50 211 -48 217 -64 218 -591 1 -364
2 -378 40 -515 19 -65 23 -107 24 -220 1 -154 -10 -220 -70 -406 -42 -131 -64
-154 -226 -235 l-113 -57 -56 12 c-81 16 -91 13 -29 -10 91 -35 118 -34 203 1
81 33 161 96 196 153 22 36 79 254 107 407 11 61 18 149 18 245 1 131 -2 159
-22 220 -29 90 -38 241 -22 400 19 196 24 428 11 482 -24 93 -78 125 -255 153
-69 10 -134 23 -145 29 -35 19 -37 11 -5 -18z"/>
<path d="M2000 1697 c0 -4 10 -27 22 -50 15 -31 22 -67 26 -134 5 -103 -11
-174 -54 -230 -29 -38 -26 -40 25 -13 108 54 132 181 62 316 -29 57 -81 127
-81 111z"/>
<path d="M1140 1634 c-107 -116 -110 -240 -8 -314 58 -42 74 -39 43 8 -53 80
-54 215 -4 314 11 21 18 38 15 38 -2 0 -22 -21 -46 -46z"/>
<path d="M1510 1665 c0 -4 11 -20 25 -36 23 -28 45 -86 45 -120 0 -25 31 -33
50 -12 9 10 22 38 29 63 7 25 24 60 37 78 14 17 22 32 19 32 -19 0 -65 -45
-83 -80 l-20 -41 -18 37 c-17 34 -84 97 -84 79z"/>
<path d="M1535 1384 c-32 -13 -118 -40 -190 -60 -147 -39 -139 -37 -257 -93
-64 -30 -98 -54 -132 -92 -26 -29 -45 -54 -42 -56 2 -2 30 13 62 33 78 50 169
91 387 175 264 102 249 99 310 65 29 -16 95 -51 147 -78 103 -52 120 -69 146
-138 20 -53 57 -105 85 -120 18 -10 18 -7 -6 42 -14 29 -19 44 -10 33 33 -40
87 -159 107 -234 25 -95 26 -258 3 -346 -36 -139 -138 -281 -250 -347 -41 -24
-45 -29 -20 -23 62 13 158 70 214 126 165 164 206 434 100 657 -23 49 -53 88
-111 146 -44 43 -85 93 -90 110 -20 58 -48 84 -150 141 -168 94 -203 101 -303
59z"/>
<path d="M1560 1245 c-9 -10 -9 -15 -1 -15 6 0 11 -7 11 -14 0 -23 59 -62 129
-85 35 -12 69 -21 76 -21 6 0 31 -21 55 -46 40 -41 116 -91 125 -82 2 2 -8 12
-23 22 -15 10 -49 47 -76 83 -26 35 -53 66 -59 68 -7 2 -47 13 -89 26 -51 14
-87 31 -106 50 -26 25 -31 27 -42 14z"/>
</g>
</svg>
